<svg width="29" height="26" viewBox="0 0 29 26" fill="none" xmlns="http://www.w3.org/2000/svg">
<path d="M25.918 3.08195C25.2583 2.42191 24.475 1.89832 23.6129 1.54109C22.7507 1.18387 21.8267 1 20.8934 1C19.9602 1 19.0361 1.18387 18.174 1.54109C17.3119 1.89832 16.5286 2.42191 15.8688 3.08195L14.4997 4.45113L13.1305 3.08195C11.7979 1.74934 9.99047 1.00069 8.10587 1.00069C6.22128 1.00069 4.41387 1.74934 3.08126 3.08195C1.74865 4.41456 1 6.22197 1 8.10656C1 9.99116 1.74865 11.7986 3.08126 13.1312L4.45043 14.5003L14.4997 24.5496L24.5489 14.5003L25.918 13.1312C26.5781 12.4714 27.1017 11.6881 27.4589 10.826C27.8161 9.96385 28 9.03978 28 8.10656C28 7.17334 27.8161 6.24927 27.4589 5.38713C27.1017 4.52499 26.5781 3.74168 25.918 3.08195Z" fill="#008A34" stroke="#008A34" stroke-width="2" stroke-linecap="round" stroke-linejoin="round"/>
</svg>
