<svg width="31" height="28" viewBox="0 0 31 28" fill="none" xmlns="http://www.w3.org/2000/svg">
<path d="M26.918 4.08195C26.2583 3.42191 25.475 2.89832 24.6129 2.54109C23.7507 2.18387 22.8267 2 21.8934 2C20.9602 2 20.0361 2.18387 19.174 2.54109C18.3119 2.89832 17.5286 3.42191 16.8688 4.08195L15.4997 5.45113L14.1305 4.08195C12.7979 2.74934 10.9905 2.00069 9.10587 2.00069C7.22128 2.00069 5.41387 2.74934 4.08126 4.08195C2.74865 5.41456 2 7.22197 2 9.10656C2 10.9912 2.74865 12.7986 4.08126 14.1312L5.45043 15.5003L15.4997 25.5496L25.5489 15.5003L26.918 14.1312C27.5781 13.4714 28.1017 12.6881 28.4589 11.826C28.8161 10.9639 29 10.0398 29 9.10656C29 8.17334 28.8161 7.24927 28.4589 6.38713C28.1017 5.52499 27.5781 4.74168 26.918 4.08195Z" stroke="#008A34" stroke-width="3" stroke-linecap="round" stroke-linejoin="round"/>
</svg>
