<svg width="32" height="38" viewBox="0 0 32 38" fill="none" xmlns="http://www.w3.org/2000/svg">
<path d="M29.9091 15.9545C29.9091 26.8081 15.9545 36.1111 15.9545 36.1111C15.9545 36.1111 2 26.8081 2 15.9545C2 12.2536 3.47021 8.70418 6.08719 6.08719C8.70418 3.47021 12.2536 2 15.9545 2C19.6555 2 23.2049 3.47021 25.8219 6.08719C28.4389 8.70418 29.9091 12.2536 29.9091 15.9545Z" stroke="#008A34" stroke-width="3" stroke-linecap="round" stroke-linejoin="round"/>
<path d="M15.9552 20.6061C18.5242 20.6061 20.6067 18.5235 20.6067 15.9546C20.6067 13.3856 18.5242 11.3031 15.9552 11.3031C13.3863 11.3031 11.3037 13.3856 11.3037 15.9546C11.3037 18.5235 13.3863 20.6061 15.9552 20.6061Z" stroke="#008A34" stroke-width="3" stroke-linecap="round" stroke-linejoin="round"/>
</svg>
