<svg width="51" height="51" viewBox="0 0 51 51" fill="none" xmlns="http://www.w3.org/2000/svg">
<path d="M23.375 8.5H8.5C7.37283 8.5 6.29183 8.94777 5.4948 9.7448C4.69777 10.5418 4.25 11.6228 4.25 12.75V42.5C4.25 43.6272 4.69777 44.7082 5.4948 45.5052C6.29183 46.3022 7.37283 46.75 8.5 46.75H38.25C39.3772 46.75 40.4582 46.3022 41.2552 45.5052C42.0522 44.7082 42.5 43.6272 42.5 42.5V27.625" stroke="#008A34" stroke-width="4" stroke-linecap="round" stroke-linejoin="round"/>
<path d="M39.3125 5.32031C40.1579 4.47493 41.3045 4 42.5 4C43.6955 4 44.8421 4.47493 45.6875 5.32031C46.5329 6.16568 47.0078 7.31226 47.0078 8.50781C47.0078 9.70335 46.5329 10.8499 45.6875 11.6953L25.5 31.8828L17 34.0078L19.125 25.5078L39.3125 5.32031Z" stroke="#008A34" stroke-width="4" stroke-linecap="round" stroke-linejoin="round"/>
</svg>
