<svg width="53" height="53" viewBox="0 0 53 53" fill="none" xmlns="http://www.w3.org/2000/svg">
<path d="M35.9085 2H16.2697C14.9676 2 13.7188 2.51727 12.7981 3.43801C11.8773 4.35875 11.3601 5.60755 11.3601 6.90968V46.1871C11.3601 47.4892 11.8773 48.738 12.7981 49.6588C13.7188 50.5795 14.9676 51.0968 16.2697 51.0968H45.7278C47.0299 51.0968 48.2787 50.5795 49.1995 49.6588C50.1202 48.738 50.6375 47.4892 50.6375 46.1871V16.729L35.9085 2Z" fill="#00A896" fill-opacity="0.19" stroke="#00A896" stroke-width="3" stroke-linecap="round" stroke-linejoin="round"/>
<path d="M35.9088 2V16.729H50.6378" fill="#00A896" fill-opacity="0.7"/>
<path d="M35.9088 2V16.729H50.6378" stroke="#00A896" stroke-width="3" stroke-linecap="round" stroke-linejoin="round"/>
<g filter="url(#filter0_d_225_228)">
<rect x="3" y="27" width="35" height="14.7549" rx="3" fill="#00A896"/>
</g>
<path d="M13.656 37V31.416H16.168C16.424 31.416 16.6533 31.4587 16.856 31.544C17.064 31.624 17.24 31.7413 17.384 31.896C17.528 32.0453 17.6373 32.2267 17.712 32.44C17.7867 32.6533 17.824 32.888 17.824 33.144C17.824 33.4053 17.7867 33.6427 17.712 33.856C17.6373 34.064 17.528 34.2453 17.384 34.4C17.24 34.5493 17.064 34.6667 16.856 34.752C16.6533 34.832 16.424 34.872 16.168 34.872H14.712V37H13.656ZM14.712 33.96H16.072C16.2747 33.96 16.4347 33.9067 16.552 33.8C16.6693 33.688 16.728 33.5307 16.728 33.328V32.96C16.728 32.7573 16.6693 32.6027 16.552 32.496C16.4347 32.3893 16.2747 32.336 16.072 32.336H14.712V33.96ZM18.781 31.416H20.813C21.1757 31.416 21.5037 31.4747 21.797 31.592C22.0957 31.7093 22.349 31.8853 22.557 32.12C22.7703 32.3493 22.933 32.64 23.045 32.992C23.1623 33.3387 23.221 33.744 23.221 34.208C23.221 34.672 23.1623 35.08 23.045 35.432C22.933 35.7787 22.7703 36.0693 22.557 36.304C22.349 36.5333 22.0957 36.7067 21.797 36.824C21.5037 36.9413 21.1757 37 20.813 37H18.781V31.416ZM20.813 36.064C21.2077 36.064 21.5197 35.9493 21.749 35.72C21.9837 35.4853 22.101 35.128 22.101 34.648V33.768C22.101 33.288 21.9837 32.9333 21.749 32.704C21.5197 32.4693 21.2077 32.352 20.813 32.352H19.837V36.064H20.813ZM24.2966 37V31.416H27.8886V32.352H25.3526V33.704H27.5606V34.64H25.3526V37H24.2966Z" fill="white"/>
<defs>
<filter id="filter0_d_225_228" x="0" y="24" width="43" height="22.7549" filterUnits="userSpaceOnUse" color-interpolation-filters="sRGB">
<feFlood flood-opacity="0" result="BackgroundImageFix"/>
<feColorMatrix in="SourceAlpha" type="matrix" values="0 0 0 0 0 0 0 0 0 0 0 0 0 0 0 0 0 0 127 0" result="hardAlpha"/>
<feOffset dx="1" dy="1"/>
<feGaussianBlur stdDeviation="2"/>
<feComposite in2="hardAlpha" operator="out"/>
<feColorMatrix type="matrix" values="0 0 0 0 0 0 0 0 0 0 0 0 0 0 0 0 0 0 0.25 0"/>
<feBlend mode="normal" in2="BackgroundImageFix" result="effect1_dropShadow_225_228"/>
<feBlend mode="normal" in="SourceGraphic" in2="effect1_dropShadow_225_228" result="shape"/>
</filter>
</defs>
</svg>
